<?xml version="1.0" encoding="UTF-8"?>
<svg version="1.1" xmlns="http://www.w3.org/2000/svg" width="193" height="46">
<path d="M0 0 C63.69 0 127.38 0 193 0 C193 15.18 193 30.36 193 46 C129.31 46 65.62 46 0 46 C0 30.82 0 15.64 0 0 Z " fill="#FCFAFE" transform="translate(0,0)"/>
<path d="M0 0 C1.22396484 -0.02449219 2.44792969 -0.04898438 3.70898438 -0.07421875 C15.11684505 -0.11143852 15.11684505 -0.11143852 19.6875 4.375 C23.76308336 10.09126692 23.16610176 15.52323702 23.125 22.3125 C23.1549707 24.06336914 23.1549707 24.06336914 23.18554688 25.84960938 C23.17935621 36.71421928 23.17935621 36.71421928 18.6875 41.375 C12.87969189 45.54767321 7.15576516 44.85267103 0.25 44.8125 C-0.96494141 44.83248047 -2.17988281 44.85246094 -3.43164062 44.87304688 C-14.71011266 44.86686689 -14.71011266 44.86686689 -19.3125 40.375 C-22.49417344 35.45950887 -21.72218463 29.60744982 -21.73803711 23.95776367 C-21.7499466 21.94651863 -21.799166 19.93833358 -21.84960938 17.92773438 C-21.85669922 16.65349609 -21.86378906 15.37925781 -21.87109375 14.06640625 C-21.88454834 12.90310791 -21.89800293 11.73980957 -21.91186523 10.54125977 C-21.13329129 6.42829622 -19.48502416 5.01434155 -16.3125 2.375 C-11.37626947 -0.91582035 -5.80034097 0.00605148 0 0 Z " fill="#796FF7" transform="translate(22.3125,0.625)"/>
<path d="M0 0 C1.671875 0.7890625 1.671875 0.7890625 2.4609375 2.953125 C2.671875 5.7890625 2.671875 5.7890625 0.7578125 8.5 C-0.58410156 9.81871094 -0.58410156 9.81871094 -1.953125 11.1640625 C-2.83226562 12.05867188 -3.71140625 12.95328125 -4.6171875 13.875 C-7.328125 15.7890625 -7.328125 15.7890625 -10.1640625 15.578125 C-10.87820313 15.31773438 -11.59234375 15.05734375 -12.328125 14.7890625 C-12.82037492 11.20081969 -12.5060239 10.02467669 -10.28125 7.078125 C-9.38921875 6.19898438 -8.4971875 5.31984375 -7.578125 4.4140625 C-6.69640625 3.51945312 -5.8146875 2.62484375 -4.90625 1.703125 C-2.328125 -0.2109375 -2.328125 -0.2109375 0 0 Z " fill="#FAFAFE" transform="translate(24.328125,17.2109375)"/>
<path d="M0 0 C0.721875 0.350625 1.44375 0.70125 2.1875 1.0625 C5.3122705 2.10409017 6.88161996 1.89096572 10 1 C12 6.75 12 6.75 12 9 C8.37 9 4.74 9 1 9 C-1.125 3.375 -1.125 3.375 0 0 Z " fill="#EDE1FA" transform="translate(167,30)"/>
<path d="M0 0 C3 1 3 1 5 2 C6.32 2 7.64 2 9 2 C9 5.11257569 8.82638376 7.10765685 8 10 C5.66705225 10.04241723 3.33297433 10.04092937 1 10 C0 9 0 9 -0.09765625 6.93359375 C-0.08605469 6.10988281 -0.07445312 5.28617188 -0.0625 4.4375 C-0.05347656 3.61121094 -0.04445312 2.78492188 -0.03515625 1.93359375 C-0.02355469 1.29550781 -0.01195312 0.65742188 0 0 Z " fill="#CCAAF1" transform="translate(156,29)"/>
<path d="M0 0 C0.99 0.33 1.98 0.66 3 1 C3 3.31 3 5.62 3 8 C2.01 8 1.02 8 0 8 C0 6.35 0 4.7 0 3 C-0.66 3 -1.32 3 -2 3 C-2 4.98 -2 6.96 -2 9 C-2.66 9 -3.32 9 -4 9 C-4 7.02 -4 5.04 -4 3 C-4.99 3 -5.98 3 -7 3 C-7 4.98 -7 6.96 -7 9 C-7.66 9 -8.32 9 -9 9 C-9 6.36 -9 3.72 -9 1 C-7.88625 1.020625 -6.7725 1.04125 -5.625 1.0625 C-2.16784079 1.26380718 -2.16784079 1.26380718 0 0 Z " fill="#A86DE8" transform="translate(189,30)"/>
<path d="M0 0 C0.99 0.33 1.98 0.66 3 1 C3 3.31 3 5.62 3 8 C2.01 8 1.02 8 0 8 C0 6.35 0 4.7 0 3 C-0.66 3 -1.32 3 -2 3 C-2 4.98 -2 6.96 -2 9 C-2.66 9 -3.32 9 -4 9 C-4 7.02 -4 5.04 -4 3 C-4.99 3 -5.98 3 -7 3 C-7 4.98 -7 6.96 -7 9 C-7.66 9 -8.32 9 -9 9 C-9 6.36 -9 3.72 -9 1 C-7.88625 1.020625 -6.7725 1.04125 -5.625 1.0625 C-2.16784079 1.26380718 -2.16784079 1.26380718 0 0 Z " fill="#A970E8" transform="translate(109,30)"/>
<path d="M0 0 C1.32 0 2.64 0 4 0 C3.979375 0.9075 3.95875 1.815 3.9375 2.75 C3.9889755 5.42672588 4.2215017 7.46988052 5 10 C3.02 10.33 1.04 10.66 -1 11 C-2.23825459 7.28523623 -1.70587257 4.81171187 -1 1 C-0.67 0.67 -0.34 0.34 0 0 Z " fill="#AA71E8" transform="translate(86,31)"/>
<path d="M0 0 C0.99 0 1.98 0 3 0 C3.99 3.3 4.98 6.6 6 10 C5.34 10 4.68 10 4 10 C3.67 9.34 3.34 8.68 3 8 C2.01 8 1.02 8 0 8 C-0.33 8.66 -0.66 9.32 -1 10 C-1.66 10 -2.32 10 -3 10 C-2.01 6.7 -1.02 3.4 0 0 Z " fill="#A468E7" transform="translate(136,29)"/>
<path d="M0 0 C1.32 0.33 2.64 0.66 4 1 C4.66 3.97 5.32 6.94 6 10 C5.34 10 4.68 10 4 10 C4 9.01 4 8.02 4 7 C2.02 7.66 0.04 8.32 -2 9 C-1.51421457 5.87709365 -1.0013988 3.00419641 0 0 Z " fill="#9955E4" transform="translate(119,29)"/>
<path d="M0 0 C1.65 0.33 3.3 0.66 5 1 C5.33 3.31 5.66 5.62 6 8 C4.02 8 2.04 8 0 8 C-0.33 6.68 -0.66 5.36 -1 4 C-0.34 3.67 0.32 3.34 1 3 C0.67 2.01 0.34 1.02 0 0 Z " fill="#AA71E8" transform="translate(173,31)"/>
<path d="M0 0 C0.99 0.33 1.98 0.66 3 1 C3 2.65 3 4.3 3 6 C2.319375 5.690625 1.63875 5.38125 0.9375 5.0625 C-2.0169401 4.68807632 -2.0169401 4.68807632 -3.890625 6.4921875 C-5.65738841 8.2804968 -7.35521072 10.09924927 -9 12 C-9 9 -9 9 -7.03125 6.73828125 C-5.77828125 5.53751953 -5.77828125 5.53751953 -4.5 4.3125 C-3.6646875 3.50425781 -2.829375 2.69601563 -1.96875 1.86328125 C-1.3190625 1.24839844 -0.669375 0.63351563 0 0 Z " fill="#C9C5FB" transform="translate(22,17)"/>
<path d="M0 0 C1.98 0 3.96 0 6 0 C7.35439668 2.70879335 7.06501451 5.00933268 7 8 C6.34 8 5.68 8 5 8 C5 6.02 5 4.04 5 2 C4.01 2 3.02 2 2 2 C2 3.98 2 5.96 2 8 C1.34 8 0.68 8 0 8 C0 5.36 0 2.72 0 0 Z " fill="#A365E7" transform="translate(51,31)"/>
<path d="M0 0 C1.67542976 0.28604898 3.34385343 0.61781233 5 1 C5 1.99 5 2.98 5 4 C3.68 4 2.36 4 1 4 C1 4.66 1 5.32 1 6 C2.32 6.33 3.64 6.66 5 7 C3.125 7.625 3.125 7.625 1 8 C-1 6 -1 6 -1.1875 3.4375 C-1 1 -1 1 0 0 Z " fill="#A568E7" transform="translate(66,31)"/>
<path d="M0 0 C2.0625 0.4375 2.0625 0.4375 4 1 C4 1.99 4 2.98 4 4 C2.68 4 1.36 4 0 4 C0 4.66 0 5.32 0 6 C1.32 6.33 2.64 6.66 4 7 C2.125 7.625 2.125 7.625 0 8 C-0.66 7.34 -1.32 6.68 -2 6 C-1.44444444 1.44444444 -1.44444444 1.44444444 0 0 Z " fill="#A263E6" transform="translate(94,31)"/>
<path d="M0 0 C1.98 0 3.96 0 6 0 C6 2.31 6 4.62 6 7 C5.67 7 5.34 7 5 7 C5 5.35 5 3.7 5 2 C4.01 2 3.02 2 2 2 C2 3.98 2 5.96 2 8 C1.34 8 0.68 8 0 8 C0 5.36 0 2.72 0 0 Z " fill="#9C59E5" transform="translate(100,31)"/>
<path d="M0 0 C1.98 0.495 1.98 0.495 4 1 C4 3.62113708 3.68707555 5.50935112 3 8 C1.68 8 0.36 8 -1 8 C-1 4.88742431 -0.82638376 2.89234315 0 0 Z " fill="#A365E6" transform="translate(151,31)"/>
<path d="M0 0 C1.32 0 2.64 0 4 0 C4 3.11257569 3.82638376 5.10765685 3 8 C1.68 7.67 0.36 7.34 -1 7 C-0.34 6.34 0.32 5.68 1 5 C0.34 4.67 -0.32 4.34 -1 4 C-0.67 2.68 -0.34 1.36 0 0 Z " fill="#A060E6" transform="translate(161,31)"/>
<path d="M0 0 C1.32 0 2.64 0 4 0 C4 3.11257569 3.82638376 5.10765685 3 8 C1.68 7.67 0.36 7.34 -1 7 C-0.34 6.34 0.32 5.68 1 5 C0.34 4.67 -0.32 4.34 -1 4 C-0.67 2.68 -0.34 1.36 0 0 Z " fill="#A060E6" transform="translate(144,31)"/>
<path d="M0 0 C2.0625 0.4375 2.0625 0.4375 4 1 C4 1.66 4 2.32 4 3 C3.34 3 2.68 3 2 3 C2 4.32 2 5.64 2 7 C2.66 7.33 3.32 7.66 4 8 C2.68 8 1.36 8 0 8 C-0.38063221 5.6739143 -0.71269945 3.33944736 -1 1 C-0.67 0.67 -0.34 0.34 0 0 Z " fill="#9C5AE4" transform="translate(167,30)"/>
<path d="M0 0 C0.66 0 1.32 0 2 0 C2.33 3.63 2.66 7.26 3 11 C2.01 10.67 1.02 10.34 0 10 C0 6.7 0 3.4 0 0 Z " fill="#A366E7" transform="translate(77,28)"/>
<path d="M0 0 C2.0625 0.4375 2.0625 0.4375 4 1 C4 1.66 4 2.32 4 3 C3.34 3 2.68 3 2 3 C2.33 4.65 2.66 6.3 3 8 C2.01 8 1.02 8 0 8 C-0.38063221 5.6739143 -0.71269945 3.33944736 -1 1 C-0.67 0.67 -0.34 0.34 0 0 Z " fill="#9F5EE5" transform="translate(60,30)"/>
<path d="M0 0 C0.66 0 1.32 0 2 0 C2 0.66 2 1.32 2 2 C2.66 2.33 3.32 2.66 4 3 C3.67 5.31 3.34 7.62 3 10 C1.35 8.68 -0.3 7.36 -2 6 C-1.01 6 -0.02 6 1 6 C0.67 4.02 0.34 2.04 0 0 Z " fill="#EBDDF9" transform="translate(89,30)"/>
<path d="M0 0 C1.98 0.495 1.98 0.495 4 1 C3.67 2.65 3.34 4.3 3 6 C1.68 5.67 0.36 5.34 -1 5 C-0.67 3.35 -0.34 1.7 0 0 Z " fill="#AF79EA" transform="translate(119,29)"/>
<path d="M0 0 C0.99 0.33 1.98 0.66 3 1 C3 3.31 3 5.62 3 8 C2.01 8 1.02 8 0 8 C-0.38063221 5.6739143 -0.71269945 3.33944736 -1 1 C-0.67 0.67 -0.34 0.34 0 0 Z " fill="#9A56E4" transform="translate(189,30)"/>
<path d="M0 0 C0.33 0.99 0.66 1.98 1 3 C1.66 3.66 2.32 4.32 3 5 C1.68 5.33 0.36 5.66 -1 6 C-2.32 4.35 -3.64 2.7 -5 1 C-2 0 -2 0 0 0 Z " fill="#EADCF9" transform="translate(150,32)"/>
</svg>
